<?xml version="1.0" encoding="utf-8"?>
<!-- Generator: Adobe Illustrator 19.0.0, SVG Export Plug-In . SVG Version: 6.00 Build 0)  -->
<svg version="1.1"
	 id="Layer_1" xmlns:rdf="http://www.w3.org/1999/02/22-rdf-syntax-ns#" xmlns:cc="http://creativecommons.org/ns#" xmlns:svg="http://www.w3.org/2000/svg" xmlns:dc="http://purl.org/dc/elements/1.1/"
	 xmlns="http://www.w3.org/2000/svg" xmlns:xlink="http://www.w3.org/1999/xlink" x="0px" y="0px"
	 viewBox="389.4 174.7 764.8 149.8" style="enable-background:new 389.4 174.7 764.8 149.8;" xml:space="preserve">
<style type="text/css">
	.st0{fill:#41B5DA;}
</style>
<g id="logo-group">
	<g id="logo-center" transform="translate(131.8446921366459 0)">
		
			<image style="overflow:visible;" width="400" height="400" id="icon" xlink:href="mantA-boring-1.png"  transform="matrix(0.3744 0 0 0.3744 257.5074 174.7466)">
		</image>
		<g id="title">
			<path class="st0" d="M553.8,308.5c-0.1-0.1-0.1-0.4-0.1-0.8c0-0.4,0-0.7,0.1-0.8s0.3-0.8,0.6-1.7s0.6-1.9,1-3s0.7-2,1-3
				s0.5-1.5,0.6-1.8c2.7-8.7,5.1-16.5,7.2-23.3c2.1-6.9,4-13.7,5.9-20.3s3.7-13.3,5.5-20.3c1.9-7,3.9-15,6.2-23.9v-3.1
				c-2.7-0.9-5.7-0.8-8.9,0.3c-3.1,1.1-6.3,3-9.6,5.5s-6.6,5.6-10,9.1c-3.4,3.5-6.7,7.2-9.8,11.1c-3.2,3.8-6.3,7.7-9.3,11.5
				c-3,3.8-5.8,7.2-8.3,10.4c-2.5,3.1-4.8,5.7-6.9,7.7c-2,2-3.6,3.1-4.8,3.4c-0.8,0.2-1.9,0.1-3.1-0.3c-1.2-0.5-1.8-0.9-1.8-1.4
				v-9.6c0.3-1,0.7-2.7,1.1-4.9c0.6-2.3,1.1-4.8,1.7-7.6c0.7-2.8,1.3-5.8,2-8.9c0.8-3.1,1.4-6,2-8.9c0.7-2.8,1.2-5.3,1.7-7.5
				c0.5-2.3,0.8-3.9,1.1-5.1c0.5-2.2,0.9-4.3,1.3-6.3c0.5-2.1,0.6-4.2,0.3-6.5c-2.8-0.9-5.8-0.2-9,2.3c-3.2,2.3-6.5,5.8-9.8,10.4
				c-3.3,4.6-6.6,9.9-10,16s-6.7,12.4-9.8,18.8s-6.3,12.8-9.3,19.1c-2.9,6.3-5.6,11.9-8,16.7c-2.4,4.8-4.6,8.6-6.5,11.5
				c-1.8,2.8-3.2,4-4.2,3.7c-1.3-0.4-1.8-1.9-1.5-4.6c0.4-2.7,1.3-6.1,2.8-10.3c1.5-4.2,3.4-9,5.8-14.2c2.3-5.3,4.9-10.8,7.6-16.5
				c2.8-5.6,5.7-11.3,8.6-16.9s5.7-10.8,8.3-15.6s4.9-9,6.9-12.5c2.1-3.7,3.6-6.3,4.5-8c2,0.8,3.7,1,5.2,0.8
				c1.5-0.3,2.9-0.8,4.2-1.5s2.6-1.6,3.8-2.7c1.3-1,2.8-2,4.4-3c3.4-2.1,6-3,8-2.7s3.4,1.3,4.2,3.1c0.9,1.8,1.4,4.2,1.4,7.3
				c0,3-0.2,6.3-0.7,9.8s-1.1,7.2-2,11c-0.8,3.7-1.5,7.1-2.3,10.3c-0.8,3.1-1.4,5.8-2,8c-0.5,2.2-0.7,3.5-0.6,4.1
				c0.8,0.4,1.4,0.3,1.8-0.1c0.6-0.5,1-0.9,1.4-1.4c0.3-0.5,0.9-1.4,2-2.7c1.1-1.3,2.4-2.8,3.8-4.5c1.4-1.8,2.9-3.7,4.5-5.6
				s3.1-3.8,4.5-5.5c1.5-1.8,2.8-3.3,3.8-4.6s1.7-2.2,2.1-2.7c8.2-6.5,15-11.3,20.7-14.3c5.7-3.2,10.3-5,13.8-5.3
				c3.6-0.4,6.1,0.5,7.7,2.5s2.4,5,2.5,8.9c0.1,3.8-0.5,8.3-1.7,13.6c-1.2,5.3-2.9,10.9-4.9,17c-0.3,0.8-0.8,2.6-1.7,5.3
				c-0.8,2.6-1.7,5.8-2.8,9.4c-1.1,3.6-2.3,7.4-3.5,11.4c-1.1,4-2.3,7.9-3.4,11.5c-1.1,3.6-2.1,6.7-3,9.4c-0.8,2.6-1.3,4.4-1.5,5.2
				c0,0.1-0.1,0.7-0.3,1.8s-0.5,2.5-1,4.1c-0.4,1.5-0.8,3.1-1.4,4.8c-0.6,1.8-1.3,3.4-2.1,4.8s-1.8,2.5-3,3.2
				c-1,0.8-2.2,0.9-3.5,0.4c-0.1,0-0.3-0.2-0.7-0.7C554.1,308.9,553.9,308.6,553.8,308.5z"/>
			<path class="st0" d="M598.1,295.8c-2.3-1.9-3.5-4.6-3.8-8.3c-0.2-3.7,0.3-7.8,1.5-12.4c1.3-4.6,3.2-9.4,5.6-14.3
				c2.5-5.1,5.4-9.8,8.7-14.3c3.3-4.6,6.8-8.7,10.7-12.2c3.8-3.7,7.7-6.3,11.5-8c3.8-1.8,7.6-2.4,11.3-1.8c3.7,0.5,7,2.6,10,6.3
				c1.9,2.3,3,4.7,3.4,7.2c0.4,2.3,0.3,4.8-0.1,7.3c-0.5,2.4-1.2,5-2.3,7.6c-1,2.5-2.1,5.1-3.1,7.7c-0.9,2.6-1.7,5.3-2.4,8
				c-0.6,2.7-0.7,5.5-0.3,8.3c0.5,3.6,2.1,5.7,4.8,6.3s6,0.5,9.7-0.6c3.8-1,7.9-2.7,12.1-4.9s8.1-4.5,11.7-6.8
				c3.7-2.3,6.7-4.2,9-5.9c2.4-1.7,3.7-2.5,3.7-2.5c2.6-0.6,4.1-0.4,4.4,0.6c0.4,0.8-0.1,2.2-1.5,3.9c-1.3,1.7-3.3,3.7-6,5.9
				c-2.7,2.2-5.8,4.3-9.3,6.3s-7.2,3.9-11.1,5.6s-7.8,2.9-11.5,3.5c-3.8,0.6-7.3,0.5-10.7-0.1c-3.3-0.8-6-2.4-8.2-5.1
				c-1-1.1-1.8-2.3-2.4-3.4c-0.5-1.1-1.3-2.1-2.4-3c-1.4,1.3-3.1,3-5.1,5.2c-2,2.1-4.1,4.2-6.5,6.3c-2.3,2.1-4.7,4-7.3,5.9
				c-2.5,1.9-5.2,3.3-7.9,4.2s-5.5,1.3-8.3,1C603.2,299.2,600.6,298,598.1,295.8z M599.6,291c0.8,3,2.7,4.4,5.6,4.2
				c2.9-0.3,6.3-1.7,10.1-4.4s7.8-6.2,12-10.7c4.1-4.6,7.8-9.7,11.1-15.2c3.3-5.6,5.8-11.5,7.5-17.7c1.8-6.2,2.3-12.3,1.4-18.3
				c-2.3-1.8-5.1-1.8-8.4-0.1c-3.4,1.6-7,4.3-10.8,8c-3.8,3.7-7.5,8.1-11.3,13.2c-3.7,5.1-6.9,10.2-9.7,15.5c-2.8,5.2-5,10-6.5,14.6
				C599.2,284.8,598.9,288.4,599.6,291z"/>
			<path class="st0" d="M743.6,297.5c-0.3-3.1,0-6.1,0.7-9.1c0.8-3.1,1.9-6.1,3.2-9c1.4-3,2.9-6,4.4-8.9c1.6-3,3-5.9,4.1-8.7
				c1.1-2.9,1.9-5.7,2.4-8.4c0.5-2.8,0.3-5.6-0.6-8.3c-2.3-0.8-5.1-0.7-8.2,0.6c-3,1.2-6.2,3.1-9.6,5.6c-3.4,2.4-6.9,5.3-10.5,8.7
				c-3.6,3.3-7.1,6.7-10.5,10.1c-3.4,3.4-6.6,6.6-9.7,9.7s-5.9,5.7-8.4,7.7c-2.4,2-4.5,3.2-6.2,3.8c-1.7,0.5-2.8-0.1-3.4-1.8
				c-0.1-0.1,0.4-1.3,1.5-3.5c1.2-2.3,2.7-5.3,4.4-8.7c1.8-3.5,3.7-7.2,5.8-11.3c2.2-4,4.2-7.8,6-11.3c1.9-3.6,3.5-6.6,4.9-9
				s2.3-3.8,2.7-3.9c2,1.3,3,2.8,3,4.4c0.1,1.5-0.1,3.1-0.7,4.8c-0.6,1.6-1.2,3.2-2,4.9c-0.7,1.7-0.8,3.4-0.3,5.1
				c1.5-1,3.6-2.4,6.2-4.2c2.7-1.9,5.6-3.8,8.7-5.8c3.2-2,6.5-3.9,9.8-5.8c3.5-1.9,6.7-3.3,9.7-4.4c3-1.1,5.7-1.7,8-1.8
				c2.4-0.1,4.2,0.6,5.3,2.1s1.5,4,1,7.5c-0.4,3.4-1.8,8-4.4,13.9c-0.3,0.7-1,2.3-2.1,4.8c-1,2.4-2.2,5.1-3.5,8
				c-1.2,2.8-2.4,5.5-3.5,8c-1,2.4-1.7,4-2,4.6c-0.1,0.4-0.2,1.1-0.4,2.1c-0.1,0.9-0.2,2-0.4,3.2c-0.2,1.1-0.5,2.3-0.8,3.4
				c-0.4,1-0.8,1.8-1.4,2.4s-1.2,0.5-2-0.1C744.1,298.1,743.7,297.7,743.6,297.5z"/>
			<path class="st0" d="M782.6,297.5c-0.1-0.2-0.1-0.7-0.1-1.5s0-1.4,0.1-1.7c0.3-1,0.8-2.8,1.5-5.3c0.8-2.6,1.5-5.3,2.4-8.2
				c0.8-2.9,1.6-5.6,2.4-8.2s1.3-4.3,1.5-5.3c0.4-1.3,0.8-2.8,1.3-4.5c0.5-1.8,0.6-3.5,0.3-5.1c-1.4-0.2-3.1,0-5.2,0.6
				c-2.1,0.5-4.1,0.9-6.2,1.3c-2,0.3-3.8,0.3-5.6,0c-1.7-0.4-2.9-1.5-3.7-3.4c1.1-2.3,2.8-3.8,5.1-4.5c2.3-0.8,4.7-1.3,7.3-1.5
				s5.1-0.7,7.5-1.3c2.4-0.6,4.4-1.8,5.8-3.8c0.8-2.4,1.8-5.4,3-8.9c1.2-3.6,2.5-7.3,3.8-11.1s2.7-7.6,4.2-11.4
				c1.6-3.8,3.2-7.1,4.9-10c1-0.7,1.9-0.7,2.5-0.1c0.7,0.6,1.1,1.4,1.4,2.5c0.4,1,0.6,2.1,0.7,3.2s0.1,1.9,0,2.3
				c-0.6,2.4-1.5,5.1-3,7.9c-1.3,2.7-2.6,5.5-3.8,8.3c-1.1,2.8-2.1,5.6-2.8,8.4c-0.7,2.8-0.7,5.5,0,8h30.2c0.1,0,0.3,0.3,0.7,1
				c0.4,0.6,0.7,1,1,1.4c0.5,1.3,0,2.2-1.5,2.7s-3.5,0.8-6,1c-2.5,0.1-5.4,0.2-8.7,0.3c-3.2,0-6.3,0.2-9.3,0.7
				c-2.9,0.4-5.5,1.1-7.9,2.1c-2.3,0.9-3.9,2.4-4.8,4.4c-2.4,6.3-4.7,12.6-6.8,19c-2.1,6.3-4,12.7-5.9,19.1
				c-0.2,0.3-0.6,0.8-1.1,1.4c-0.6,0.6-1.2,1.1-1.8,1.5c-0.7,0.4-1.3,0.5-2,0.4C783.4,299.1,782.9,298.5,782.6,297.5z"/>
			<path class="st0" d="M831.8,295.8c-0.1-0.2-0.1-0.4-0.1-0.7c0-0.4,0-0.7,0.1-0.8c0.4-0.8,1-2,1.8-3.8c0.9-1.9,1.9-3.8,2.8-5.8
				c1-2.1,2-4,3-5.8s1.6-3,2-3.8c0.2-0.3,0.7-1.1,1.4-2.4c0.8-1.3,1.8-2.9,3-4.8c1.2-2,2.5-4.1,3.8-6.5c1.4-2.3,2.8-4.6,4.1-6.9
				c1.4-2.3,2.7-4.4,3.8-6.3c1.2-2,2.2-3.6,3-4.9c1.9-3.1,4-6.8,6.5-11c2.5-4.2,5.1-8.5,7.7-12.8s5.2-8.5,7.7-12.5
				c2.6-4,5-7.4,7.2-10s4-4.4,5.5-5.2s2.5-0.3,3.1,1.7v4.5c-0.7,1-1.5,2.4-2.7,4.1c-1.1,1.6-2.3,3.3-3.5,5.2
				c-1.1,1.8-2.3,3.5-3.4,5.2s-2,3-2.5,3.9c-0.8,1.3-2.2,3.4-4.1,6.3s-4,6.2-6.3,9.8s-4.7,7.5-7.2,11.5c-2.4,3.9-4.6,7.6-6.6,11.1
				s-3.6,6.5-4.8,9c-1.1,2.4-1.5,4-1.3,4.6c2.3-0.7,4.6-1.8,7.2-3.5c2.6-1.8,5.3-3.7,7.9-5.6s5.3-3.8,7.9-5.6
				c2.6-1.9,5.1-3.3,7.3-4.4c2.3,0.3,4.2,1.1,5.9,2.5s2.9,3.2,3.7,5.3c-0.1,0.8-0.2,2.4-0.3,4.8c0,2.3,0,4.6,0,7.2s0,4.9,0,7.2
				c0.1,2.3,0.2,3.8,0.3,4.6c0.1,1,0.6,2.3,1.4,3.9c0.8,1.5,1.7,3,2.7,4.6c1,1.5,1.9,2.8,2.7,3.9c0.8,1.1,1.2,1.7,1.1,1.8
				c-1.9,0.7-3.7,0.7-5.3,0.1c-1.7-0.7-3.2-1.6-4.5-3c-1.2-1.4-2.3-3-3.1-4.6c-0.8-1.8-1.2-3.5-1.4-5.2c-0.1-0.8-0.2-2.4-0.4-4.6
				c-0.2-2.3-0.4-4.8-0.6-7.3c-0.1-2.5-0.2-4.9-0.4-7.2c-0.1-2.3-0.1-3.8-0.1-4.6l-3.2-1.7c-0.6-0.3-1.5,0-3,0.7
				c-1.3,0.8-2.9,1.8-4.6,3.1s-3.7,2.8-5.6,4.5s-3.8,3.3-5.6,4.8c-1.7,1.5-3.1,2.8-4.4,3.9s-2,1.8-2.3,2.1c-0.8,0.8-2.1,2.1-4.1,4.1
				c-2,1.9-4.1,3.9-6.3,6.2c-2.2,2.2-4.2,4.2-6.2,6.2c-1.9,2-3.2,3.4-3.9,4.2c-1.3,0.3-2.6,0.4-3.8,0.4
				C833.3,297.8,832.4,297.1,831.8,295.8z"/>
			<path class="st0" d="M916.2,295.8c-2.3-1.9-3.5-4.6-3.8-8.3c-0.2-3.7,0.3-7.8,1.5-12.4c1.3-4.6,3.2-9.4,5.6-14.3
				c2.5-5.1,5.4-9.8,8.7-14.3c3.3-4.6,6.8-8.7,10.7-12.2c3.8-3.7,7.7-6.3,11.5-8c3.8-1.8,7.6-2.4,11.3-1.8c3.7,0.5,7,2.6,10,6.3
				c1.9,2.3,3,4.7,3.4,7.2c0.4,2.3,0.3,4.8-0.1,7.3c-0.5,2.4-1.2,5-2.3,7.6c-1,2.5-2.1,5.1-3.1,7.7c-0.9,2.6-1.7,5.3-2.4,8
				c-0.6,2.7-0.7,5.5-0.3,8.3c0.5,3.6,2.1,5.7,4.8,6.3s6,0.5,9.7-0.6c3.8-1,7.9-2.7,12.1-4.9s8.1-4.5,11.7-6.8
				c3.7-2.3,6.7-4.2,9-5.9c2.4-1.7,3.7-2.5,3.7-2.5c2.6-0.6,4.1-0.4,4.4,0.6c0.4,0.8-0.1,2.2-1.5,3.9c-1.3,1.7-3.3,3.7-6,5.9
				c-2.7,2.2-5.8,4.3-9.3,6.3s-7.2,3.9-11.1,5.6s-7.8,2.9-11.5,3.5c-3.8,0.6-7.3,0.5-10.7-0.1c-3.3-0.8-6-2.4-8.2-5.1
				c-1-1.1-1.8-2.3-2.4-3.4c-0.5-1.1-1.3-2.1-2.4-3c-1.4,1.3-3.1,3-5.1,5.2c-2,2.1-4.1,4.2-6.5,6.3c-2.3,2.1-4.7,4-7.3,5.9
				c-2.5,1.9-5.2,3.3-7.9,4.2s-5.5,1.3-8.3,1C921.3,299.2,918.7,298,916.2,295.8z M917.7,291c0.8,3,2.7,4.4,5.6,4.2
				c2.9-0.3,6.3-1.7,10.1-4.4s7.8-6.2,12-10.7c4.1-4.6,7.8-9.7,11.1-15.2c3.3-5.6,5.8-11.5,7.5-17.7c1.8-6.2,2.3-12.3,1.4-18.3
				c-2.3-1.8-5.1-1.8-8.4-0.1c-3.4,1.6-7,4.3-10.8,8c-3.8,3.7-7.5,8.1-11.3,13.2c-3.7,5.1-6.9,10.2-9.7,15.5c-2.8,5.2-5,10-6.5,14.6
				C917.3,284.8,917,288.4,917.7,291z"/>
		</g>
		<g id="tagline">
		</g>
	</g>
</g>
</svg>
